<?xml version="1.0" encoding="UTF-8"?>
<svg width="512" height="512" viewBox="0 0 512 512" fill="none" xmlns="http://www.w3.org/2000/svg">
  <!-- Background -->
  <rect width="512" height="512" rx="64" fill="#1e3a8a"/>
  
  <!-- Document outline -->
  <rect x="96" y="64" width="320" height="384" rx="16" fill="white"/>
  
  <!-- Header lines -->
  <rect x="144" y="112" width="160" height="16" rx="8" fill="#2563eb"/>
  <rect x="144" y="144" width="224" height="12" rx="6" fill="#d1d5db"/>
  <rect x="144" y="168" width="192" height="12" rx="6" fill="#d1d5db"/>
  
  <!-- Section lines -->
  <rect x="144" y="216" width="80" height="16" rx="8" fill="#2563eb"/>
  <rect x="144" y="244" width="224" height="8" rx="4" fill="#e5e7eb"/>
  <rect x="144" y="264" width="224" height="8" rx="4" fill="#e5e7eb"/>
  
  <rect x="144" y="296" width="80" height="16" rx="8" fill="#2563eb"/>
  <rect x="144" y="324" width="224" height="8" rx="4" fill="#e5e7eb"/>
  <rect x="144" y="344" width="224" height="8" rx="4" fill="#e5e7eb"/>
  
  <rect x="144" y="376" width="80" height="16" rx="8" fill="#2563eb"/>
  <rect x="144" y="404" width="112" height="8" rx="4" fill="#e5e7eb"/>
  <rect x="268" y="404" width="100" height="8" rx="4" fill="#e5e7eb"/>
</svg> 